<?xml version="1.0" encoding="UTF-8" standalone="no"?>
<svg
   xmlns:dc="http://purl.org/dc/elements/1.1/"
   xmlns:cc="http://creativecommons.org/ns#"
   xmlns:rdf="http://www.w3.org/1999/02/22-rdf-syntax-ns#"
   xmlns:svg="http://www.w3.org/2000/svg"
   xmlns="http://www.w3.org/2000/svg"
   xmlns:sodipodi="http://sodipodi.sourceforge.net/DTD/sodipodi-0.dtd"
   xmlns:inkscape="http://www.inkscape.org/namespaces/inkscape"
   version="1.1"
   id="svg2"
   xml:space="preserve"
   width="1333.3333"
   height="1333.3333"
   viewBox="0 0 1333.3333 1333.3333"
   sodipodi:docname="dglr.eps"><metadata
     id="metadata8"><rdf:RDF><cc:Work
         rdf:about=""><dc:format>image/svg+xml</dc:format><dc:type
           rdf:resource="http://purl.org/dc/dcmitype/StillImage" /></cc:Work></rdf:RDF></metadata><defs
     id="defs6" /><sodipodi:namedview
     pagecolor="#ffffff"
     bordercolor="#666666"
     borderopacity="1"
     objecttolerance="10"
     gridtolerance="10"
     guidetolerance="10"
     inkscape:pageopacity="0"
     inkscape:pageshadow="2"
     inkscape:window-width="640"
     inkscape:window-height="480"
     id="namedview4" /><g
     id="g10"
     inkscape:groupmode="layer"
     inkscape:label="ink_ext_XXXXXX"
     transform="matrix(1.3333333,0,0,-1.3333333,0,1333.3333)"><g
       id="g12"
       transform="scale(0.1)"><path
         d="m 3357.99,866.039 c 183.39,0 281.45,117.992 281.45,304.201 0,187.63 -98.06,305.59 -281.45,305.59 h -140.7 V 866.039 Z m -288.54,740.571 h 294.23 c 257.28,0 423.6,-170.58 423.6,-436.37 0,-265.799 -166.32,-436.381 -423.6,-436.381 h -294.23 v 872.751"
         style="fill:#07142c;fill-opacity:1;fill-rule:nonzero;stroke:none"
         id="path14" /><path
         d="m 4571.91,1057.95 v 126.49 h 331.18 v -68.23 c 0,-241.628 -157.78,-396.558 -370.97,-396.558 -234.52,0 -410.82,181.938 -410.82,450.588 0,268.64 177.7,450.58 405.12,450.58 200.42,0 324.09,-113.71 358.2,-287.12 h -147.84 c -35.5,93.8 -93.82,153.51 -210.36,153.51 -154.93,0 -255.83,-132.19 -255.83,-316.97 0,-184.791 99.46,-319.818 261.53,-319.818 132.16,0 211.79,85.269 230.27,207.528 h -190.48"
         style="fill:#07142c;fill-opacity:1;fill-rule:nonzero;stroke:none"
         id="path16" /><path
         d="m 5277,1606.61 h 147.84 V 866.039 h 419.31 V 733.859 H 5277 v 872.751"
         style="fill:#07142c;fill-opacity:1;fill-rule:nonzero;stroke:none"
         id="path18" /><path
         d="m 6370.1,1211.45 h 186.19 c 98.06,0 153.53,52.6 153.53,133.61 0,81.04 -55.47,133.61 -153.53,133.61 H 6370.1 Z m 0,-123.67 V 733.859 h -147.84 v 872.751 h 336.87 c 180.5,0 297.08,-90.97 297.08,-261.55 0,-146.39 -85.28,-230.27 -223.18,-251.59 L 6886.07,733.859 H 6718.31 L 6475.25,1087.78 H 6370.1"
         style="fill:#07142c;fill-opacity:1;fill-rule:nonzero;stroke:none"
         id="path20" /><path
         d="m 3926.9,3821.4 -2576.42,1373.24 2696.4,-716.83 25.69,140.27 -3183.863,846.49 c -29.277,7.77 -106.84,28.46 -133.223,-38.52 -26.238,-66.95 42.875,-104.64 69.598,-118.84 L 3899.43,3671.29 3926.9,3821.4"
         style="fill:#2d8fc0;fill-opacity:1;fill-rule:nonzero;stroke:none"
         id="path22" /><path
         d="m 4035.97,3599.55 27.41,149.93 -0.11,0.05 -27.41,-149.92 0.11,-0.06"
         style="fill:#47c4f3;fill-opacity:1;fill-rule:nonzero;stroke:none"
         id="path24" /><path
         d="m 5961.97,3599.98 v 0 l -27.48,150.5 z"
         style="fill:#47c4f3;fill-opacity:1;fill-rule:nonzero;stroke:none"
         id="path26" /><path
         d="m 9244.64,5424.61 c -26.43,67.02 -104.04,46.3 -133.17,38.51 l -3188.32,-846.45 25.79,-141.27 2695.21,715.66 -2575.86,-1369.45 27.49,-150.58 3077.25,1634.1 c 26.68,14.19 97.86,52.53 71.61,119.48"
         style="fill:#2d8fc0;fill-opacity:1;fill-rule:nonzero;stroke:none"
         id="path28" /><path
         d="m 5808.79,4438.18 -25.8,141.28 -783.43,-207.98 -784.43,208.58 -25.65,-140.28 791.47,-210.44 c 6.08,-1.62 12.37,-3.64 18.59,-3.64 6.22,0 9.89,0.22 15.97,1.84 l 793.28,210.64"
         style="fill:#2d8fc0;fill-opacity:1;fill-rule:nonzero;stroke:none"
         id="path30" /><path
         d="m 4997.11,3252.14 -933.72,497.39 -27.42,-149.98 961.92,-511.59 964.09,511.96 -27.49,150.56 -937.38,-498.34"
         style="fill:#2d8fc0;fill-opacity:1;fill-rule:nonzero;stroke:none"
         id="path32" /><path
         d="M 6284.48,2637.39 5090.72,9174.9 c -12.73,69.46 -43.41,105.1 -91.16,105.1 h -0.05 c -47.75,0 -79.88,-35.62 -92.61,-105.07 L 3710,2636.5 c 0,-0.03 0,-0.03 0,-0.03 0,-57.23 6.8,-105.94 44.72,-133.65 19.14,-13.99 42.35,-20.99 66.56,-20.99 23.78,0 49.51,6.76 74.98,20.29 l 717.24,381.27 381.12,206.34 -150.26,79.89 -982.64,-522.49 1137.8,6222.78 934.86,-5119.49 0.11,0.06 27.49,-150.56 -0.11,-0.06 173.81,-951.79 -982.44,522.38 -150.38,-79.85 1101.8,-587.04 c 51.37,-27.32 100.57,-27.3 138.48,0.39 37.96,27.73 51.76,76.21 41.34,133.44"
         style="fill:#07142c;fill-opacity:1;fill-rule:nonzero;stroke:none"
         id="path34" /></g></g></svg>
